<svg width="512" height="512" viewBox="0 0 512 512" fill="none" xmlns="http://www.w3.org/2000/svg">
<g clip-path="url(#clip0_0_1)">
<path d="M260 54C242.3 54 228 68.3 228 86C228 103.7 242.3 118 260 118H480C497.7 118 512 103.7 512 86C512 68.3 497.7 54 480 54H260ZM260 224C242.3 224 228 238.3 228 256C228 273.7 242.3 288 260 288H480C497.7 288 512 273.7 512 256C512 238.3 497.7 224 480 224H260ZM260 394C242.3 394 228 408.3 228 426C228 443.7 242.3 458 260 458H480C497.7 458 512 443.7 512 426C512 408.3 497.7 394 480 394H260Z" fill="currentColor"/>
<path d="M131.823 9.18182V111H110.296V29.6151H109.7L86.3828 44.2315V25.1406L111.589 9.18182H131.823ZM163.132 112.293C159.85 112.293 157.033 111.133 154.68 108.812C152.36 106.459 151.2 103.642 151.2 100.361C151.2 97.1127 152.36 94.3286 154.68 92.0085C157.033 89.6884 159.85 88.5284 163.132 88.5284C166.314 88.5284 169.098 89.6884 171.484 92.0085C173.87 94.3286 175.064 97.1127 175.064 100.361C175.064 102.548 174.5 104.554 173.373 106.376C172.279 108.166 170.838 109.608 169.048 110.702C167.258 111.762 165.286 112.293 163.132 112.293Z" fill="currentColor"/>
<path d="M62.37 284V268.489L98.6129 234.93C101.695 231.947 104.281 229.263 106.369 226.876C108.49 224.49 110.097 222.153 111.191 219.866C112.285 217.546 112.832 215.044 112.832 212.359C112.832 209.376 112.152 206.808 110.793 204.653C109.434 202.466 107.578 200.792 105.225 199.632C102.872 198.439 100.204 197.842 97.2209 197.842C94.1054 197.842 91.3875 198.472 89.0675 199.732C86.7474 200.991 84.9576 202.797 83.6982 205.151C82.4387 207.504 81.8089 210.304 81.8089 213.553H61.3757C61.3757 206.891 62.8838 201.107 65.8999 196.202C68.916 191.296 73.1418 187.501 78.5774 184.817C84.013 182.132 90.2772 180.79 97.37 180.79C104.662 180.79 111.009 182.082 116.411 184.668C121.847 187.22 126.073 190.766 129.089 195.307C132.105 199.848 133.613 205.051 133.613 210.918C133.613 214.762 132.851 218.557 131.326 222.303C129.835 226.048 127.166 230.207 123.322 234.781C119.477 239.322 114.058 244.774 107.065 251.138L92.1996 265.705V266.401H134.955V284H62.37ZM163.132 285.293C159.85 285.293 157.033 284.133 154.68 281.812C152.36 279.459 151.2 276.642 151.2 273.361C151.2 270.113 152.36 267.329 154.68 265.009C157.033 262.688 159.85 261.528 163.132 261.528C166.314 261.528 169.098 262.688 171.484 265.009C173.87 267.329 175.064 270.113 175.064 273.361C175.064 275.548 174.5 277.554 173.373 279.376C172.279 281.166 170.838 282.608 169.048 283.702C167.258 284.762 165.286 285.293 163.132 285.293Z" fill="currentColor"/>
<path d="M98.7745 451.392C91.3503 451.392 84.738 450.116 78.9379 447.564C73.1708 444.979 68.6135 441.432 65.266 436.925C61.9516 432.384 60.2447 427.147 60.1452 421.214H81.8214C81.954 423.7 82.766 425.888 84.2575 427.777C85.7821 429.633 87.8039 431.075 90.3228 432.102C92.8417 433.13 95.6755 433.643 98.8242 433.643C102.105 433.643 105.006 433.063 107.525 431.903C110.043 430.743 112.016 429.136 113.441 427.081C114.866 425.026 115.578 422.656 115.578 419.972C115.578 417.254 114.816 414.851 113.292 412.763C111.8 410.642 109.646 408.984 106.828 407.791C104.044 406.598 100.73 406.001 96.8853 406.001H87.3896V390.192H96.8853C100.133 390.192 103 389.628 105.486 388.501C108.005 387.375 109.961 385.817 111.353 383.828C112.745 381.806 113.441 379.453 113.441 376.768C113.441 374.216 112.828 371.979 111.601 370.057C110.408 368.101 108.718 366.577 106.53 365.483C104.376 364.389 101.857 363.842 98.9734 363.842C96.0567 363.842 93.3886 364.373 90.9691 365.433C88.5496 366.461 86.6107 367.936 85.1523 369.858C83.694 371.78 82.9151 374.034 82.8157 376.619H62.1836C62.283 370.753 63.9568 365.582 67.2049 361.108C70.453 356.634 74.828 353.137 80.3299 350.618C85.8649 348.066 92.1126 346.79 99.0728 346.79C106.099 346.79 112.248 348.066 117.517 350.618C122.787 353.17 126.881 356.617 129.797 360.959C132.747 365.268 134.205 370.107 134.172 375.476C134.205 381.177 132.432 385.933 128.853 389.744C125.306 393.556 120.683 395.975 114.982 397.003V397.798C122.472 398.759 128.173 401.361 132.084 405.604C136.028 409.813 137.984 415.083 137.951 421.413C137.984 427.214 136.31 432.367 132.929 436.875C129.582 441.383 124.958 444.929 119.059 447.514C113.159 450.099 106.398 451.392 98.7745 451.392ZM163.132 451.293C159.85 451.293 157.033 450.133 154.68 447.812C152.36 445.459 151.2 442.642 151.2 439.361C151.2 436.113 152.36 433.329 154.68 431.009C157.033 428.688 159.85 427.528 163.132 427.528C166.314 427.528 169.098 428.688 171.484 431.009C173.87 433.329 175.064 436.113 175.064 439.361C175.064 441.548 174.5 443.554 173.373 445.376C172.279 447.166 170.838 448.608 169.048 449.702C167.258 450.762 165.286 451.293 163.132 451.293Z" fill="currentColor"/>
</g>
<defs>
<clipPath id="clip0_0_1">
<rect width="512" height="512" fill="white"/>
</clipPath>
</defs>
</svg>
