<svg width="512" height="512" viewBox="0 0 512 512" fill="none" xmlns="http://www.w3.org/2000/svg">
<g clip-path="url(#clip0_1_12)">
<path d="M260 54C242.3 54 228 68.3 228 86C228 103.7 242.3 118 260 118H480C497.7 118 512 103.7 512 86C512 68.3 497.7 54 480 54H260ZM260 224C242.3 224 228 238.3 228 256C228 273.7 242.3 288 260 288H480C497.7 288 512 273.7 512 256C512 238.3 497.7 224 480 224H260ZM260 394C242.3 394 228 408.3 228 426C228 443.7 242.3 458 260 458H480C497.7 458 512 443.7 512 426C512 408.3 497.7 394 480 394H260Z" fill="currentColor"/>
<path d="M119.768 25.1818V127H98.2415V45.6151H97.6449L74.3281 60.2315V41.1406L99.5341 25.1818H119.768ZM179.863 76.0909C179.863 88.4536 178.205 99.822 174.891 110.196C171.61 120.57 166.572 130.182 159.777 139.031H139.543C142.128 135.75 144.531 131.74 146.752 127C148.972 122.26 150.911 117.09 152.569 111.489C154.226 105.854 155.518 100.021 156.446 93.9886C157.374 87.9564 157.838 81.9905 157.838 76.0909C157.838 68.2358 157.026 60.3144 155.402 52.3267C153.811 44.3059 151.624 36.8816 148.84 30.054C146.089 23.1932 142.99 17.5753 139.543 13.2003H159.777C166.572 22.0497 171.61 31.6615 174.891 42.0355C178.205 52.4096 179.863 63.7614 179.863 76.0909Z" fill="currentColor"/>
<path d="M55.7841 300V284.489L92.027 250.93C95.1094 247.947 97.6946 245.263 99.7827 242.876C101.904 240.49 103.511 238.153 104.605 235.866C105.699 233.546 106.246 231.044 106.246 228.359C106.246 225.376 105.566 222.808 104.207 220.653C102.848 218.466 100.992 216.792 98.6392 215.632C96.286 214.439 93.6179 213.842 90.6349 213.842C87.5194 213.842 84.8016 214.472 82.4815 215.732C80.1615 216.991 78.3717 218.797 77.1122 221.151C75.8527 223.504 75.223 226.304 75.223 229.553H54.7898C54.7898 222.891 56.2978 217.107 59.3139 212.202C62.33 207.296 66.5559 203.501 71.9915 200.817C77.4271 198.132 83.6913 196.79 90.7841 196.79C98.0758 196.79 104.423 198.082 109.825 200.668C115.261 203.22 119.487 206.766 122.503 211.307C125.519 215.848 127.027 221.051 127.027 226.918C127.027 230.762 126.265 234.557 124.74 238.303C123.249 242.048 120.58 246.207 116.736 250.781C112.891 255.322 107.472 260.774 100.479 267.138L85.6136 281.705V282.401H128.369V300H55.7841ZM179.863 249.091C179.863 261.454 178.205 272.822 174.891 283.196C171.61 293.57 166.572 303.182 159.777 312.031H139.543C142.128 308.75 144.531 304.74 146.752 300C148.972 295.26 150.911 290.09 152.569 284.489C154.226 278.854 155.518 273.021 156.446 266.989C157.374 260.956 157.838 254.991 157.838 249.091C157.838 241.236 157.026 233.314 155.402 225.327C153.811 217.306 151.624 209.882 148.84 203.054C146.089 196.193 142.99 190.575 139.543 186.2H159.777C166.572 195.05 171.61 204.661 174.891 215.036C178.205 225.41 179.863 236.761 179.863 249.091Z" fill="currentColor"/>
<path d="M89.3175 473.392C81.8932 473.392 75.281 472.116 69.4808 469.564C63.7138 466.979 59.1565 463.432 55.8089 458.925C52.4946 454.384 50.7876 449.147 50.6882 443.214H72.3643C72.4969 445.7 73.3089 447.888 74.8004 449.777C76.325 451.633 78.3468 453.075 80.8658 454.102C83.3847 455.13 86.2185 455.643 89.3672 455.643C92.6484 455.643 95.5485 455.063 98.0675 453.903C100.586 452.743 102.558 451.136 103.984 449.081C105.409 447.026 106.121 444.656 106.121 441.972C106.121 439.254 105.359 436.851 103.835 434.763C102.343 432.642 100.189 430.984 97.3715 429.791C94.5874 428.598 91.273 428.001 87.4283 428.001H77.9325V412.192H87.4283C90.6764 412.192 93.5433 411.628 96.0291 410.501C98.5481 409.375 100.504 407.817 101.896 405.828C103.288 403.806 103.984 401.453 103.984 398.768C103.984 396.216 103.371 393.979 102.144 392.057C100.951 390.101 99.2607 388.577 97.0732 387.483C94.9188 386.389 92.3999 385.842 89.5163 385.842C86.5997 385.842 83.9316 386.373 81.5121 387.433C79.0926 388.461 77.1536 389.936 75.6953 391.858C74.237 393.78 73.4581 396.034 73.3587 398.619H52.7266C52.826 392.753 54.4998 387.582 57.7479 383.108C60.996 378.634 65.371 375.137 70.8729 372.618C76.4079 370.066 82.6555 368.79 89.6158 368.79C96.6423 368.79 102.79 370.066 108.06 372.618C113.33 375.17 117.424 378.617 120.34 382.959C123.29 387.268 124.748 392.107 124.715 397.476C124.748 403.177 122.975 407.933 119.396 411.744C115.849 415.556 111.226 417.975 105.525 419.003V419.798C113.015 420.759 118.716 423.361 122.627 427.604C126.571 431.813 128.527 437.083 128.494 443.413C128.527 449.214 126.853 454.367 123.472 458.875C120.125 463.383 115.501 466.929 109.602 469.514C103.702 472.099 96.9406 473.392 89.3175 473.392ZM179.863 421.091C179.863 433.454 178.205 444.822 174.891 455.196C171.61 465.57 166.572 475.182 159.777 484.031H139.543C142.128 480.75 144.531 476.74 146.752 472C148.972 467.26 150.911 462.09 152.569 456.489C154.226 450.854 155.518 445.021 156.446 438.989C157.374 432.956 157.838 426.991 157.838 421.091C157.838 413.236 157.026 405.314 155.402 397.327C153.811 389.306 151.624 381.882 148.84 375.054C146.089 368.193 142.99 362.575 139.543 358.2H159.777C166.572 367.05 171.61 376.661 174.891 387.036C178.205 397.41 179.863 408.761 179.863 421.091Z" fill="currentColor"/>
</g>
<defs>
<clipPath id="clip0_1_12">
<rect width="512" height="512" fill="white"/>
</clipPath>
</defs>
</svg>
